<svg width="92" height="106" viewBox="0 0 92 106" fill="none" xmlns="http://www.w3.org/2000/svg">
<path d="M41.13 76.81C41.07 76.33 41.04 75.79 41.04 75.19C41.1 74.53 41.16 73.9 41.22 73.3C41.28 72.64 41.31 71.98 41.31 71.32C40.83 71.38 39.96 71.41 38.7 71.41C37.5 71.35 36.09 71.29 34.47 71.23C32.91 71.17 31.23 71.11 29.43 71.05C27.69 70.93 26.04 70.84 24.48 70.78C22.92 70.72 21.54 70.69 20.34 70.69C19.2 70.63 18.42 70.66 18 70.78V70.69C18.06 66.85 18.06 62.89 18 58.81C18 54.67 17.97 50.53 17.91 46.39C17.85 42.25 17.79 38.14 17.73 34.06C17.73 29.92 17.79 25.9 17.91 22C17.07 21.64 15.96 21.37 14.58 21.19C13.2 21.01 11.79 20.92 10.35 20.92C8.91 20.92 7.56 21.01 6.3 21.19C5.04 21.31 4.11 21.49 3.51 21.73C3.57 25.93 3.63 29.77 3.69 33.25C3.75 36.67 3.81 39.91 3.87 42.97C3.93 46.03 3.96 49.03 3.96 51.97C3.96 54.91 3.93 57.97 3.87 61.15C3.87 64.27 3.81 67.66 3.69 71.32C3.57 74.92 3.42 78.97 3.24 83.47V85.09C10.5 85.21 16.29 85.27 20.61 85.27C24.99 85.27 28.41 85.24 30.87 85.18C33.39 85.12 35.16 85.06 36.18 85C37.26 84.94 38.13 84.94 38.79 85C39.45 85 39.96 85 40.32 85C40.68 84.94 40.92 84.67 41.04 84.19C41.22 83.65 41.31 82.84 41.31 81.76C41.31 80.62 41.25 78.97 41.13 76.81Z" fill="white"/>
<path d="M50.87 76.81C50.93 76.33 50.96 75.79 50.96 75.19C50.9 74.53 50.84 73.9 50.78 73.3C50.72 72.64 50.69 71.98 50.69 71.32C51.17 71.38 52.04 71.41 53.3 71.41C54.5 71.35 55.91 71.29 57.53 71.23C59.09 71.17 60.77 71.11 62.57 71.05C64.31 70.93 65.96 70.84 67.52 70.78C69.08 70.72 70.46 70.69 71.66 70.69C72.8 70.63 73.58 70.66 74 70.78V70.69C73.94 66.85 73.94 62.89 74 58.81C74 54.67 74.03 50.53 74.09 46.39C74.15 42.25 74.21 38.14 74.27 34.06C74.27 29.92 74.21 25.9 74.09 22C74.93 21.64 76.04 21.37 77.42 21.19C78.8 21.01 80.21 20.92 81.65 20.92C83.09 20.92 84.44 21.01 85.7 21.19C86.96 21.31 87.89 21.49 88.49 21.73C88.43 25.93 88.37 29.77 88.31 33.25C88.25 36.67 88.19 39.91 88.13 42.97C88.07 46.03 88.04 49.03 88.04 51.97C88.04 54.91 88.07 57.97 88.13 61.15C88.13 64.27 88.19 67.66 88.31 71.32C88.43 74.92 88.58 78.97 88.76 83.47V85.09C81.5 85.21 75.71 85.27 71.39 85.27C67.01 85.27 63.59 85.24 61.13 85.18C58.61 85.12 56.84 85.06 55.82 85C54.74 84.94 53.87 84.94 53.21 85C52.55 85 52.04 85 51.68 85C51.32 84.94 51.08 84.67 50.96 84.19C50.78 83.65 50.69 82.84 50.69 81.76C50.69 80.62 50.75 78.97 50.87 76.81Z" fill="white"/>
<path d="M30.7 21.72C30.7 23.4467 30.7233 25.0567 30.77 26.55C30.8167 28.0433 30.91 28.93 31.05 29.21C31.19 29.2567 32.0067 29.28 33.5 29.28C37.7 29.3733 40.29 29.56 41.27 29.84V30.12C41.5033 38.4733 41.6667 45.9867 41.76 52.66C41.8067 54.34 41.83 56.5567 41.83 59.31C41.83 61.7367 41.8067 63.4167 41.76 64.35V68.62C41.76 69.18 41.7367 69.6933 41.69 70.16C41.69 70.58 41.7133 70.8833 41.76 71.07C42.6933 70.8833 44.07 70.79 45.89 70.79C47.6167 70.79 48.9 70.72 49.74 70.58V70.44C49.6 64.7 49.46 55.67 49.32 43.35C49.2733 42.4167 49.25 41.2267 49.25 39.78C49.25 33.76 49.2733 30.61 49.32 30.33C49.4133 30.05 49.4133 29.77 49.32 29.49H51.14C52.6333 29.49 54.1267 29.4433 55.62 29.35C57.4867 29.3033 58.9333 29.3733 59.96 29.56C60.1933 27.7867 60.31 26.1067 60.31 24.52C60.31 23.4933 60.2867 22.77 60.24 22.35C55.8067 21.8367 50.1833 21.58 43.37 21.58L36.86 21.65C35.5067 21.6967 33.4533 21.72 30.7 21.72Z" fill="#BFBFBF"/>
</svg>
